# xmcd
#
# Track frame offsets:
#	150
#	12266
#	26197
#	40163
#	52334
#	66885
#	77574
#	90846
#	103329
#	115441
#	130689
#	147535
#	165582
#	179466
#
# Disc length: 2566 seconds
#
# Revision: 0
# Processed by: cddbd v1.5.1PL0 Copyright (c) Steve Scherf et al.
# Submitted via: audiograbber 1.83.01
#
DISCID=c20a040e
DTITLE=Parton, Dolly - Dolly Parton
DYEAR=2004
DGENRE=Country
TTITLE0=Jolene
TTITLE1=Coat of many colors
TTITLE2=My Tennessee mountain home
TTITLE3=To Daddy
TTITLE4=We used to
TTITLE5=Love is like a butterfly
TTITLE6=Here you come again
TTITLE7=Elusive butterfly
TTITLE8=The bargain store
TTITLE9=You're the only one
TTITLE10=Single women
TTITLE11=Starting over again
TTITLE12=Joshua
TTITLE13=I will always love you
EXTD=
EXTT0=
EXTT1=
EXTT2=
EXTT3=
EXTT4=
EXTT5=
EXTT6=
EXTT7=
EXTT8=
EXTT9=
EXTT10=
EXTT11=
EXTT12=
EXTT13=
PLAYORDER=
